<?xml version="1.0" encoding="UTF-8"?>
<!DOCTYPE svg PUBLIC "-//W3C//DTD SVG 1.0//EN" "http://www.w3.org/TR/2001/REC-SVG-20010904/DTD/svg10.dtd">
<!-- Creator: CorelDRAW 2021 (64-Bit) -->
<svg xmlns="http://www.w3.org/2000/svg" xml:space="preserve" width="210mm" height="297mm" version="1.0" style="shape-rendering:geometricPrecision; text-rendering:geometricPrecision; image-rendering:optimizeQuality; fill-rule:evenodd; clip-rule:evenodd"
viewBox="0 0 21000 29700"
 xmlns:xlink="http://www.w3.org/1999/xlink"
 xmlns:xodm="http://www.corel.com/coreldraw/odm/2003">
 <defs>
  <style type="text/css">
   <![CDATA[
    .str1 {stroke:black;stroke-width:7.62;stroke-linecap:round;stroke-linejoin:round;stroke-miterlimit:22.9256}
    .str3 {stroke:black;stroke-width:7.62;stroke-miterlimit:10}
    .str2 {stroke:black;stroke-width:7.62;stroke-miterlimit:10}
    .str0 {stroke:black;stroke-width:7.62;stroke-miterlimit:10}
    .fil3 {fill:none;fill-rule:nonzero}
    .fil2 {fill:black}
    .fil0 {fill:white}
    .fil1 {fill:white;fill-rule:nonzero}
   ]]>
  </style>
 </defs>
 <g id="Layer_x0020_1">
  <metadata id="CorelCorpID_0Corel-Layer"/>
  <g id="_2340695060880">
   <g>
    <path class="fil0 str0" d="M4142.37 16794.94c-240.8,-3331.44 2397.09,-2878.13 3209.28,-6462.11 345.52,3386.71 -2469.07,3424.68 -3209.28,6462.11z"/>
    <path class="fil0 str0" d="M3816.83 15809.92c-240.81,-3331.45 2397.17,-2878.33 3209.37,-6462.12 345.52,3386.71 -2469.21,3424.64 -3209.37,6462.12z"/>
    <path class="fil0 str0" d="M8450.46 14087.61c-25.34,-400.08 -234.21,-858.8 -626.66,-1376.06 119.27,-396.64 164.1,-808.95 96.7,-1229.9 966.85,1221.39 1554.43,2554.89 1762.54,4000.33 160.5,985.14 -120.22,1778.13 -842.16,2379.24 -657.85,524.86 -961.01,1149.76 -909.2,1874.77 -2655.08,-2166.09 -1953.31,-3640.8 671.92,-3823.61 361.56,-25.15 -65.85,-363.08 88.6,-523.25 89.62,-93.07 105.27,-35.71 15.33,-136.76 -243.35,-273.52 331.76,20.36 9.76,-394.87 117.52,-143.97 340.02,-266.28 223.13,-370.12 -137.74,-122.23 -321.81,-236.5 -489.96,-399.77z"/>
    <path class="fil0 str0" d="M7641.03 11139.63c323.27,967.26 -6.9,2003.21 -924.71,3165.25 -1774.98,2019.74 -1986.36,3426.77 -407.61,4419.81 674.82,424.44 1226.19,641.41 929.33,1628.57 -561.65,-984.38 -863.23,-924.82 -1699.79,-1416.54 -1565.53,-920.18 -1565.47,-2316.72 0.06,-4190.03 1000.59,-1197.4 1942.38,-1879.12 2102.72,-3607.06z"/>
   </g>
   <path class="fil1 str1" d="M13207.28 13786.31c0,-332.8 -62.4,-644.8 -187.2,-935.99 -124.79,-301.6 -301.59,-551.2 -519.99,-769.6 -218.4,-228.8 -476.49,-399.58 -780,-530.4 -299.73,-129.18 -613.61,-187.19 -935.99,-187.19l-2753.12 0 1383.19 1393.59 1369.93 0c135.2,0 269.67,22.6 395.2,72.8 134.48,53.79 249.6,124.8 343.19,228.79 93.6,93.6 166.4,208 218.4,332.8 52,124.8 83.2,260 83.2,395.2 0,145.6 -31.2,280.8 -83.2,405.6 -52,124.8 -124.8,239.2 -218.4,332.79 -178.38,198.23 -474.19,312 -738.39,312l-1559.99 639.52 1559.99 743.67c294.83,0 531.76,105.34 738.39,312 93.6,93.6 166.4,208 218.4,332.8 52,124.8 83.2,260 83.2,395.2 0,135.2 -31.2,270.39 -83.2,395.19 -52,124.8 -124.8,239.2 -218.4,332.8 -93.59,104 -208.7,175.01 -343.19,228.8 -125.53,50.21 -260.01,72.8 -395.2,72.8l-2307.45 0 0 1393.59 2307.45 0c332.8,0 645.87,-59.95 935.99,-187.2 302.68,-132.75 561.6,-301.6 780,-530.4 218.4,-218.39 395.2,-467.99 519.99,-769.59 124.8,-291.2 187.2,-603.2 187.2,-935.99 0,-686.4 -239.19,-1268.8 -727.99,-1736.79 488.8,-478.4 727.99,-1060.79 727.99,-1736.79z"/>
   <path class="fil1 str1" d="M11968.09 19649.89l5216.3 0 0 -996.56 -3839.43 0 -1376.87 996.56zm69.53 -8281.92l1376.87 1113.77 3769.9 0 0 -1113.77 -5146.77 0zm1064.5 3457.7l0 1376.87 1542.9 0 2539.37 0 0 -1376.87 -2539.37 0 -1542.9 0z"/>
   <path class="fil1 str2" d="M6114.85 14820.59c0,-203.42 172.05,-368.91 383.52,-368.91 211.47,0 383.51,165.49 383.51,368.91 0,203.41 -172.04,368.9 -383.51,368.9 -211.47,0 -383.52,-165.49 -383.52,-368.9zm898.52 0c0,-276.07 -231.03,-500.67 -515,-500.67 -283.98,0 -515.01,224.6 -515.01,500.67 0,243.28 179.43,446.55 416.39,491.41l0 110.26 -153.41 0c-28.92,0 -52.59,23.71 -52.59,52.7l0 52.7c0,28.98 23.67,52.7 52.59,52.7l153.41 0 0 245.94c0,28.99 23.67,52.7 52.59,52.7l74.52 0c28.92,0 52.59,-23.71 52.59,-52.7l0 -245.94 153.41 0c28.92,0 52.59,-23.72 52.59,-52.7l0 -52.7c0,-28.99 -23.67,-52.7 -52.59,-52.7l-153.41 0 0 -107.24c245.59,-37.92 433.92,-245.19 433.92,-494.43z"/>
   <path class="fil2 str3" d="M6721.76 14369.52l-99.55 101.89c-61.23,-18.46 -95.73,-31.54 -142.18,-31.35 -209.57,0 -375.18,157.29 -378.24,358.19l-122.86 -3.31 -8.59 -0.23c4.97,-271.92 234.05,-491.65 514.93,-491.65 85.2,0 165.63,30.7 236.49,66.46zm-561.3 630.19l-89.06 101.65c-62.89,-82.4 -100.38,-184.16 -101.13,-294.25l2.4 -3.38 6.26 -8.79 122.86 3.31c-0.03,1.82 -0.04,3.65 -0.04,5.48l-129.08 0 -2.41 0c0,-3.01 0.03,-6.02 0.08,-9.02l8.59 0.23 -6.26 8.79 -2.41 0c0,1.13 0,2.25 0.01,3.38l2.4 -3.38 129.08 0c0,71.95 21.53,139.16 58.71,195.98z"/>
   <path class="fil1" d="M12952.24 19857.07l0 191.44c-161.96,-62.79 -305.92,-94.19 -431.89,-94.19 -199.1,0 -298.65,67.39 -298.65,202.55 0,54.75 18.76,98.78 55.9,132.09 37.14,33.32 106.44,67.39 206.76,102.62l141.28 49.39 134.01 45.95c207.91,73.13 312.05,197.56 312.05,372.54 0,133.25 -53.22,239.69 -159.66,319.33 -106.44,79.64 -249.26,119.46 -427.68,119.46 -124.06,0 -284.49,-26.42 -480.91,-79.26l0 -218.62c195.66,88.44 358,132.47 487.03,132.47 109.13,0 196.04,-21.44 261.13,-64.7 64.71,-43.27 97.25,-101.09 97.25,-173.83 0,-55.52 -19.14,-99.17 -57.81,-131.33 -38.29,-32.17 -117.93,-70.45 -238.16,-114.49l-147.79 -53.98c-147.41,-54.37 -249.64,-110.66 -306.69,-168.09 -57.05,-57.82 -85.77,-134.39 -85.77,-230.11 0,-129.42 44.04,-229.73 131.72,-300.95 88.06,-70.83 211.73,-106.44 371.39,-106.44 129.42,0 274.92,22.59 436.49,68.15z"/>
   <path id="_1" class="fil1" d="M13217.58 21263.79l568.59 -1438.12 220.54 0 568.58 1438.12 -234.7 0 -136.31 -360.68 -657.8 0 -138.6 360.68 -190.3 0zm395.14 -526.08l525.7 0 -263.81 -686.9 -261.89 686.9z"/>
   <polygon id="_2" class="fil1" points="14865.9,21263.79 14865.9,19825.67 15890.5,19825.67 15890.5,19991.08 15086.45,19991.08 15086.45,20487.3 15773.34,20487.3 15773.34,20652.71 15086.45,20652.71 15086.45,21263.79 "/>
   <polygon id="_3" class="fil1" points="16213.28,21263.79 16213.28,19825.67 17187.34,19825.67 17187.34,19991.08 16433.82,19991.08 16433.82,20427.57 17072.47,20427.57 17072.47,20592.98 16433.82,20592.98 16433.82,21098.38 17237.88,21098.38 17237.88,21263.79 "/>
   <path id="_4" class="fil3 str1" d="M12952.24 19857.07l0 191.44c-161.96,-62.79 -305.92,-94.19 -431.89,-94.19 -199.1,0 -298.65,67.39 -298.65,202.55 0,54.75 18.76,98.78 55.9,132.09 37.14,33.32 106.44,67.39 206.76,102.62l141.28 49.39 134.01 45.95c207.91,73.13 312.05,197.56 312.05,372.54 0,133.25 -53.22,239.69 -159.66,319.33 -106.44,79.64 -249.26,119.46 -427.68,119.46 -124.06,0 -284.49,-26.42 -480.91,-79.26l0 -218.62c195.66,88.44 358,132.47 487.03,132.47 109.13,0 196.04,-21.44 261.13,-64.7 64.71,-43.27 97.25,-101.09 97.25,-173.83 0,-55.52 -19.14,-99.17 -57.81,-131.33 -38.29,-32.17 -117.93,-70.45 -238.16,-114.49l-147.79 -53.98c-147.41,-54.37 -249.64,-110.66 -306.69,-168.09 -57.05,-57.82 -85.77,-134.39 -85.77,-230.11 0,-129.42 44.04,-229.73 131.72,-300.95 88.06,-70.83 211.73,-106.44 371.39,-106.44 129.42,0 274.92,22.59 436.49,68.15z"/>
   <path id="_5" class="fil3 str1" d="M13217.58 21263.79l568.59 -1438.12 220.54 0 568.58 1438.12 -234.7 0 -136.31 -360.68 -657.8 0 -138.6 360.68 -190.3 0zm395.14 -526.08l525.7 0 -263.81 -686.9 -261.89 686.9z"/>
   <polygon id="_6" class="fil3 str1" points="14865.9,21263.79 14865.9,19825.67 15890.5,19825.67 15890.5,19991.08 15086.45,19991.08 15086.45,20487.3 15773.34,20487.3 15773.34,20652.71 15086.45,20652.71 15086.45,21263.79 "/>
   <polygon id="_7" class="fil3 str1" points="16213.28,21263.79 16213.28,19825.67 17187.34,19825.67 17187.34,19991.08 16433.82,19991.08 16433.82,20427.57 17072.47,20427.57 17072.47,20592.98 16433.82,20592.98 16433.82,21098.38 17237.88,21098.38 17237.88,21263.79 "/>
  </g>
 </g>
</svg>
